<?xml version="1.0" encoding="UTF-8"?>
<svg width="497px" height="497px" viewBox="0 0 497 497" version="1.1" xmlns="http://www.w3.org/2000/svg" xmlns:xlink="http://www.w3.org/1999/xlink">
    <title>Group 2 Copy</title>
    <g id="Page-2" stroke="none" stroke-width="1" fill="none" fill-rule="evenodd">
        <g id="Group-2-Copy">
            <path d="M253.083414,85 C292.333788,85 326.130147,108.350865 341.337782,141.918195 C358.0171,128.290578 379.329831,120.1171 402.551625,120.1171 C444.842003,120.1171 480.800804,147.225164 493.998929,185.012579 L493.998825,398.959599 C492.162015,399.816931 490.293849,400.618321 488.396516,401.361577 C473.248806,411.182472 455.18296,416.885788 435.785002,416.885788 C389.789177,416.885788 351.283071,384.81924 341.403733,341.822694 C323.904295,359.186471 299.808436,369.911774 273.207489,369.911774 C220.334736,369.911774 177.358732,327.539748 176.385379,274.900841 C162.114136,283.186644 145.530587,287.930703 127.838978,287.930703 C74.3562872,287.930703 31,244.575434 31,191.094001 C31,137.612567 74.3562872,94.2572987 127.838978,94.2572987 C149.233397,94.2572987 169.007388,101.195012 185.033838,112.943377 C202.521671,95.6652782 226.557009,85 253.083414,85 Z" id="Combined-Shape" fill="#FEFF88"></path>
            <path d="M255.083414,83 C294.333788,83 328.130147,106.350865 343.337782,139.918195 C360.0171,126.290578 381.329831,118.1171 404.551625,118.1171 C446.842003,118.1171 482.800804,145.225164 495.998929,183.012579 L495.998825,396.959599 C494.162015,397.816931 492.293849,398.618321 490.396516,399.361577 C475.248806,409.182472 457.18296,414.885788 437.785002,414.885788 C391.789177,414.885788 353.283071,382.81924 343.403733,339.822694 C325.904295,357.186471 301.808436,367.911774 275.207489,367.911774 C222.334736,367.911774 179.358732,325.539748 178.385379,272.900841 C164.114136,281.186644 147.530587,285.930703 129.838978,285.930703 C76.3562872,285.930703 33,242.575434 33,189.094001 C33,135.612567 76.3562872,92.2572987 129.838978,92.2572987 C151.233397,92.2572987 171.007388,99.1950124 187.033838,110.943377 C204.521671,93.6652782 228.557009,83 255.083414,83 Z" id="Combined-Shape-Copy" fill="#FECACA"></path>
            <rect id="Rectangle-Copy" x="0" y="0" width="497" height="497"></rect>
        </g>
    </g>
</svg>