<?xml version="1.0" encoding="UTF-8"?>
<svg width="497px" height="497px" viewBox="0 0 497 497" version="1.1" xmlns="http://www.w3.org/2000/svg" xmlns:xlink="http://www.w3.org/1999/xlink">
    <title>Group 2 Copy 4</title>
    <g id="Page-2" stroke="none" stroke-width="1" fill="none" fill-rule="evenodd">
        <g id="Group-2-Copy-4">
            <rect id="Rectangle-Copy" x="0" y="0" width="497" height="497"></rect>
            <g id="Group-4" transform="translate(9.250698, 37.928238)">
                <g id="Group-3-Copy" transform="translate(348.878021, 129.813828) rotate(-55.000000) translate(-348.878021, -129.813828) translate(254.878021, 37.813828)">
                    <path d="M96.9298546,162.952273 C131.224467,164.511351 157.761862,138.995239 156.202784,105.960443 C155.163399,83.9372456 134.579002,55.5698319 94.4495933,20.858202 C51.7844828,51.8058855 30.9716201,78.291326 32.0110052,100.314524 C33.5700828,133.34932 62.6352417,161.393196 96.9298546,162.952273 Z" id="Oval" fill="#FC4500" transform="translate(94.121019, 91.939141) rotate(56.000000) translate(-94.121019, -91.939141) "></path>
                    <path d="M97.4500541,161.747754 C131.744667,163.306831 158.282062,137.79072 156.722984,104.755923 C155.683599,82.7327259 135.104601,54.6746289 94.9859903,20.5816325 C52.3100815,50.9106825 31.4918197,77.0868063 32.5312047,99.1100039 C34.0902824,132.1448 63.1554413,160.188676 97.4500541,161.747754 Z" id="Oval-Copy-7" fill="#B47AF5" transform="translate(94.641223, 91.198596) rotate(56.000000) translate(-94.641223, -91.198596) "></path>
                </g>
                <g id="Group-3-Copy-4" transform="translate(234.866371, 292.813828) rotate(-55.000000) translate(-234.866371, -292.813828) translate(140.866371, 200.813828)">
                    <path d="M96.6385379,162.796367 C130.933151,164.355445 157.470545,138.839334 155.911468,105.804537 C154.872083,83.7813396 133.222567,55.6485235 90.962922,21.4060889 C50.428048,51.8845771 30.6803035,78.1354201 31.7196885,100.158618 C33.2787662,133.193414 62.3439251,161.23729 96.6385379,162.796367 Z" id="Oval" fill="#FC4500" transform="translate(93.828752, 92.135132) rotate(56.000000) translate(-93.828752, -92.135132) "></path>
                    <path d="M97.440895,161.742493 C131.735508,163.30157 158.272902,137.785459 156.713825,104.750662 C155.67444,82.7274648 134.670173,54.6768634 93.7010253,20.5988583 C51.8756537,50.9129171 31.4826605,77.0815452 32.5220456,99.1047428 C34.0811232,132.139539 63.1462821,160.183415 97.440895,161.742493 Z" id="Oval-Copy-7" fill="#B47AF5" transform="translate(94.631696, 91.204579) rotate(56.000000) translate(-94.631696, -91.204579) "></path>
                </g>
                <g id="Group-3-Copy-5" transform="translate(130.190052, 141.404252) rotate(-55.000000) translate(-130.190052, -141.404252) translate(35.690052, 49.404252)">
                    <path d="M97.0879908,163.036263 C131.382604,164.595341 157.919998,139.079229 156.360921,106.044433 C155.321536,84.0212354 134.634855,55.526688 94.3008776,20.5607909 C51.8403351,51.7627417 31.1297564,78.3753159 32.1691415,100.398513 C33.7282191,133.43331 62.793378,161.477186 97.0879908,163.036263 Z" id="Oval" fill="#FC4500" transform="translate(94.279068, 91.832430) rotate(56.000000) translate(-94.279068, -91.832430) "></path>
                    <path d="M97.4500541,161.747754 C131.744667,163.306831 158.282062,137.79072 156.722984,104.755923 C155.683599,82.7327259 135.104601,54.6746289 94.9859903,20.5816325 C52.3100815,50.9106825 31.4918197,77.0868063 32.5312047,99.1100039 C34.0902824,132.1448 63.1554413,160.188676 97.4500541,161.747754 Z" id="Oval-Copy-7" fill="#B47AF5" transform="translate(94.641223, 91.198596) rotate(56.000000) translate(-94.641223, -91.198596) "></path>
                </g>
            </g>
        </g>
    </g>
</svg>