<?xml version="1.0" encoding="UTF-8"?>
<svg width="497px" height="497px" viewBox="0 0 497 497" version="1.1" xmlns="http://www.w3.org/2000/svg" xmlns:xlink="http://www.w3.org/1999/xlink">
    <title>Group 2 Copy 2</title>
    <g id="Page-2" stroke="none" stroke-width="1" fill="none" fill-rule="evenodd">
        <g id="Group-2-Copy-2">
            <rect id="Rectangle-Copy" x="0" y="0" width="497" height="497"></rect>
            <g id="Group-4" transform="translate(42.250698, 0.928238)">
                <g id="Group-3" transform="translate(295.500000, 291.500000) rotate(-10.000000) translate(-295.500000, -291.500000) translate(196.000000, 195.000000)">
                    <path d="M99,172.331898 C134.346224,172.331898 163,143.678122 163,108.331898 C163,84.7677492 142.01003,55.6571163 100.030091,21 C56.6766972,55.6571163 35,84.7677492 35,108.331898 C35,143.678122 63.653776,172.331898 99,172.331898 Z" id="Oval" fill="#FFFFFF" transform="translate(99.000000, 96.665949) rotate(56.000000) translate(-99.000000, -96.665949) "></path>
                    <path d="M100,171.331898 C135.346224,171.331898 164,142.678122 164,107.331898 C164,83.7677492 143.01003,54.6571163 101.030091,20 C57.6766972,54.6571163 36,83.7677492 36,107.331898 C36,142.678122 64.653776,171.331898 100,171.331898 Z" id="Oval-Copy-7" fill="#00DAFF" transform="translate(100.000000, 95.665949) rotate(56.000000) translate(-100.000000, -95.665949) "></path>
                </g>
                <g id="Group-3-Copy-2" transform="translate(149.500000, 179.500000) rotate(-10.000000) translate(-149.500000, -179.500000) translate(50.000000, 83.000000)">
                    <path d="M99,172.331898 C134.346224,172.331898 163,143.678122 163,108.331898 C163,84.7677492 142.01003,55.6571163 100.030091,21 C56.6766972,55.6571163 35,84.7677492 35,108.331898 C35,143.678122 63.653776,172.331898 99,172.331898 Z" id="Oval" fill="#FFFFFF" transform="translate(99.000000, 96.665949) rotate(56.000000) translate(-99.000000, -96.665949) "></path>
                    <path d="M100,171.331898 C135.346224,171.331898 164,142.678122 164,107.331898 C164,83.7677492 143.01003,54.6571163 101.030091,20 C57.6766972,54.6571163 36,83.7677492 36,107.331898 C36,142.678122 64.653776,171.331898 100,171.331898 Z" id="Oval-Copy-7" fill="#00DAFF" transform="translate(100.000000, 95.665949) rotate(56.000000) translate(-100.000000, -95.665949) "></path>
                </g>
                <g id="Group-3-Copy-3" transform="translate(115.500000, 337.500000) rotate(-10.000000) translate(-115.500000, -337.500000) translate(16.000000, 241.000000)">
                    <path d="M99,172.331898 C134.346224,172.331898 163,143.678122 163,108.331898 C163,84.7677492 142.01003,55.6571163 100.030091,21 C56.6766972,55.6571163 35,84.7677492 35,108.331898 C35,143.678122 63.653776,172.331898 99,172.331898 Z" id="Oval" fill="#FFFFFF" transform="translate(99.000000, 96.665949) rotate(56.000000) translate(-99.000000, -96.665949) "></path>
                    <path d="M100,171.331898 C135.346224,171.331898 164,142.678122 164,107.331898 C164,83.7677492 143.01003,54.6571163 101.030091,20 C57.6766972,54.6571163 36,83.7677492 36,107.331898 C36,142.678122 64.653776,171.331898 100,171.331898 Z" id="Oval-Copy-7" fill="#00DAFF" transform="translate(100.000000, 95.665949) rotate(56.000000) translate(-100.000000, -95.665949) "></path>
                </g>
                <g id="Group-3-Copy" transform="translate(333.500000, 112.500000) rotate(-10.000000) translate(-333.500000, -112.500000) translate(234.000000, 16.000000)">
                    <path d="M99,172.331898 C134.346224,172.331898 163,143.678122 163,108.331898 C163,84.7677492 142.01003,55.6571163 100.030091,21 C56.6766972,55.6571163 35,84.7677492 35,108.331898 C35,143.678122 63.653776,172.331898 99,172.331898 Z" id="Oval" fill="#FFFFFF" transform="translate(99.000000, 96.665949) rotate(56.000000) translate(-99.000000, -96.665949) "></path>
                    <path d="M100,171.331898 C135.346224,171.331898 164,142.678122 164,107.331898 C164,83.7677492 143.01003,54.6571163 101.030091,20 C57.6766972,54.6571163 36,83.7677492 36,107.331898 C36,142.678122 64.653776,171.331898 100,171.331898 Z" id="Oval-Copy-7" fill="#00DAFF" transform="translate(100.000000, 95.665949) rotate(56.000000) translate(-100.000000, -95.665949) "></path>
                </g>
            </g>
        </g>
    </g>
</svg>